<?xml version="1.0" encoding="utf-8"?>
<!-- Generator: Adobe Illustrator 24.0.1, SVG Export Plug-In . SVG Version: 6.00 Build 0)  -->
<svg version="1.1" id="Layer_1" xmlns="http://www.w3.org/2000/svg" xmlns:xlink="http://www.w3.org/1999/xlink" x="0px" y="0px"
	 viewBox="0 0 106.5 106.5" style="enable-background:new 0 0 106.5 106.5;" xml:space="preserve">
<style type="text/css">
	.st0{fill:#FFFFFF;}
</style>
<title>Logo-1</title>
<path class="st0" d="M93.9,18.9c-2.2,0.8-4.3,1.4-6.4,2.1c-0.3-0.4-0.6-0.7-0.9-1C79.3,11.4,69,5.9,57.8,4.8
	c-2.6-0.3-5.3-0.3-7.9-0.1C45.5,5,41.3,5.9,37.3,7.5c-13.5,5.3-23.5,17-26.7,31.1C9.8,42,9.4,45.5,9.5,49
	C9.8,65.4,19.3,80.3,34,87.6c6.3,3.1,13.2,4.6,20.2,4.4c21.3-0.5,39.2-16.2,42.3-37.3c0.5-3.3,0.6-6.7,0.3-10.1
	c-0.3-4.2-1.3-8.3-2.8-12.2c-0.6-1.5-1.3-3-2-4.5c-0.2-0.3-0.3-0.6-0.5-1c0.3-0.3,0.8-0.5,1.2-0.5c0.9-0.2,1.8-0.5,2.6-1
	c0.8-0.4,1.6-0.9,2.4-1.3c0.3,0.2,0.6,0.6,0.8,0.9c2.8,4.4,4.9,9.2,6.2,14.3c6.5,24.1-4.6,49.4-26.7,61c-5.9,3.1-12.3,5.1-18.9,5.7
	c-11.1,1.3-22.4-1-32.1-6.6C13.8,92.1,4.5,79.4,1.2,64.6c-3.6-16.5,0.8-33.8,12-46.5c6.3-7.2,14.4-12.6,23.5-15.5
	c7-2.3,14.4-3.1,21.7-2.4C71.8,1.5,84.3,7.9,93.2,18C93.4,18.3,93.6,18.6,93.9,18.9z"/>
<path class="st0" d="M94.7,22.2l2.2-1.1l0.6,0.9l1.1-0.5c0.8-0.3,1.6-0.7,2.4-1c0.6-0.2,1.2-0.2,1.8,0.1c0.2,0.1,0.3,0.3,0.3,0.5
	c0,0,0,0,0,0c-0.4,0.5-0.5,1.2-0.3,1.8c-0.3,0.5-0.8,0.8-1.4,0.9c-0.1,0-0.3,0.1-0.4,0.1c-0.5,0.2-1.1,0.2-1.7,0
	c-0.7-0.3-1.5-0.2-2.1,0.2c-0.5,0.3-1.1,0.6-1.6,0.9c-1,0.6-2.1,1-3.2,1.2c-0.5,0.1-1.1,0.2-1.6,0.4c-0.4,0.1-0.9,0.1-1.3,0.1
	c-0.7-0.1-1.4-0.1-2.2-0.1c-0.5,0-1,0.3-1.2,0.8L85.2,29c-0.3,0.1-0.7,0.1-1,0c-0.3-0.1-0.7-0.1-1,0c-1,0.3-2.1,0.6-3.1,0.9
	c-0.2,0.1-0.4,0.1-0.6,0.2c-0.2,0.1-0.4,0.3-0.7,0.4c0,0.3,0,0.6,0,0.9c0,0.7-0.5,1.2-1.2,1.2c-0.2,0-0.5-0.1-0.6-0.2
	c-0.2-0.2-0.5-0.3-0.8-0.5c-0.1,0.1-0.2,0.2-0.3,0.3c-0.2,0.4-0.5,0.6-0.9,0.7c-1,0.2-2,0.5-2.9,0.8c-0.1,0-0.3,0.1-0.4,0.1
	c-0.4,0.3-0.9,0.5-1.3,0.7c-0.5,0.1-0.9,0.2-1.4,0.3c0,0.2,0,0.5-0.1,0.7c0,0.2-0.1,0.4-0.2,0.6c-0.2,0.3-0.5,0.5-0.8,0.4
	c-0.7-0.2-1.3-0.3-2-0.5c-0.4,0.2-0.8,0.4-1.2,0.6s-0.8,0.1-1.3,0c-0.5,0.6-0.2,1.5-0.7,2.2c-0.8,0.3-1.6,0.5-2.5,0.8
	c-0.2,0.1-0.5,0.2-0.7,0.3c0,0.2-0.1,0.3,0,0.3c0.3,0.9,0.5,1.8,0.3,2.7c-0.1,0.9,0,1.9,0.4,2.8c0.2,0.3,0.2,0.7,0,1
	c-0.1,0.1-0.1,0.2-0.2,0.3c-0.3,0.6-0.2,1.2,0.1,1.8c0.3,0.4,0.5,0.8,0.8,1.2c0.3,0.4,0.4,1.1,0,1.5L60.7,52c-0.2,0.4-0.2,0.8,0,1.2
	c0.3,0.6,0.7,1.3,1.1,2c0,0.2-0.1,0.3-0.1,0.5c-0.2,0.8-0.2,1.6,0,2.4c0.2,0.8,0.4,1.7,0.5,2.5c0.2,0.5,0.2,1.1,0,1.6
	c-0.1,0.3-0.1,0.7,0.1,0.9c0.3,0.4,0.5,1,0.6,1.5c0.3,0.9,0.5,1.8,0.7,2.7c0.1,0.3,0.2,0.7,0.3,1c0.7-0.1,1.3-0.3,1.9-0.6
	c0.5-0.2,1-0.4,1.5-0.7c1.1-0.6,2.3-0.9,3.6-0.8c0.1,0,0.3,0,0.4-0.1c0.2-0.4,0.4-0.8,0.6-1.2c0.3-0.5,0.8-0.9,1.4-0.8
	c0.8,0,1.6-0.2,2.3-0.6c0.1,0,0.1-0.1,0.2-0.1c0.9-0.3,1.7-0.9,2-1.8c0.1-0.2,0.2-0.4,0.3-0.6c0.3-0.6,0.9-1,1.6-1
	c0.7-0.1,1.3-0.3,2-0.4c0.6-0.1,1.2-0.5,1.4-1.1c0.2-0.6,0.5-1.1,0.8-1.7c0.2,0,0.5,0,0.7,0c0.4,0,0.8,0.1,1.2,0.3
	c0.8,0.3,1.7,0.2,2.5-0.2c0.3-0.1,0.3-0.2,0.7-0.8l-0.4-0.6c-0.2-0.2-0.2-0.6,0-0.8c0.1-0.3,0.4-0.4,0.7-0.4c0.2,0,0.4,0.1,0.6,0.1
	l2.3,0.4c0.1,0,0.3,0,0.4,0.1c0.6,0.1,0.7,0.5,0.4,0.9c-0.4,0.7-0.9,1.4-1.5,1.9c-0.3,0-0.6,0-0.8,0c-0.6-0.1-1.2,0.2-1.5,0.7
	c-0.4,0.5-0.9,1-1.4,1.6c-0.4,0-0.9-0.1-1.3-0.2c-0.6-0.2-1.3-0.1-1.9,0.2c-0.5,0.2-0.8,0.7-0.8,1.2v1.2l-1.1,0.8
	c-0.4,0.3-0.8,0.4-1.3,0.4c-0.7-0.1-1.3,0.1-1.8,0.6c-0.3,0.2-0.7,0.4-1,0.7c0,0.2,0,0.4,0,0.6c0.1,0.4-0.1,0.9-0.5,1.1
	c-0.6,0.4-1.3,0.6-2,0.6c-0.7,0-1.4,0.1-2.1,0.4c-0.6,0.2-1,0.5-1.3,1.1c-0.2,0.3-0.5,0.6-0.9,0.8c-1.3,0.8-2.6,1.6-3.9,2.4
	c-0.7,0.4-1.3,0.9-1.9,1.4c-1.4,1.2-2.8,2.5-4.2,3.7l-0.6,0.5c-0.4,0.4-1,0.4-1.5,0.1l-7-4.2c-0.4-0.2-0.6-0.6-0.6-1
	c-0.1-2.5-0.4-5-1-7.4c-0.1-0.2-0.1-0.4-0.1-0.6c0-1-0.2-2-0.5-3c-0.2-0.7-0.3-1.4-0.3-2.1c0.1-1-0.1-2-0.4-2.9c-0.3-1-0.5-2-0.5-3
	c-0.1-0.8-0.1-1.5-0.1-2.3c0-1-0.1-2-0.3-3c-0.1-0.5-0.1-1,0-1.5c0.1-0.6,0-1.1-0.4-1.6c-0.1,0.1-0.2,0.1-0.3,0.2
	c-0.3,0.4-0.6,0.7-0.9,1c-0.5,0.4-0.9,1-1.1,1.6c0,0.1-0.1,0.3-0.2,0.4c-0.1,0.6-0.6,1.2-1.1,1.5c-0.7,0.4-1.1,1-1.3,1.8
	c-0.2,0.6-0.5,1.1-0.9,1.5c-0.4,0.4-0.6,0.9-0.6,1.5c0,0.4-0.1,0.8-0.4,1.1c-0.8,1.2-1.5,2.4-2.3,3.6c-0.1,0.2-0.3,0.3-0.5,0.4
	c-0.2,0.1-0.4,0.2-0.6,0.2c-0.7,0.1-1.2,0.7-1.3,1.4c-0.1,0.6-0.2,1.2-0.4,1.8c-0.1,0.4-0.4,0.8-0.7,1C36,64,36,64.1,35.9,64.2
	c-0.9,0.6-1.5,1.6-1.4,2.7c0,0.5-0.2,1.1-0.4,1.6c-0.7,1.7-1.6,3.4-2.6,5c-0.6,1-1.2,2.1-1.8,3.1s-0.8,1.1-1.9,0.6
	c-0.9-0.5-1.8-1-2.6-1.5l-3.6-2.1c-0.2-0.1-0.4-0.2-0.6-0.3c-0.7-0.3-1.1-1.2-0.8-1.9c0.1-0.5,0.2-0.9,0.4-1.3
	c0.3-0.8,0.6-1.7,0.9-2.6c0.1-0.4,0.3-0.7,0.5-1c0.4-0.5,0.7-1.2,0.8-1.9c0-0.5,0.2-0.9,0.5-1.3c0.2-0.2,0.4-0.5,0.5-0.8
	c0.1-0.6,0.4-1.1,0.8-1.5c0.3-0.4,0.6-0.8,0.9-1.2c1.6-2.2,3.3-4.3,5.2-6.3c0.5-0.5,0.9-1.1,1.2-1.7c1.8-3.2,3.7-6.3,5.5-9.5
	c0.2-0.2,0.3-0.5,0.4-0.8c0.3-0.8,0.6-1.5,1.1-2.1c0.7-0.9,1.3-1.9,1.7-3c0-0.1,0.1-0.3,0.2-0.4c0.4-0.4,0.7-1,0.8-1.6
	c0.1-0.2,0.2-0.5,0.4-0.6c0.4-0.4,0.8-0.8,1-1.4c1-2.1,2.2-4.2,3.5-6.3c0.4-0.5,0.5-1.2,0.4-1.8c-0.4-0.2-0.9-0.2-1.3,0.1
	c-0.5,0.3-1.1,0.3-1.7,0.1l-0.7-0.1c-0.4,0-0.7,0.1-1,0.3c-0.3,0.2-0.6,0.3-0.9,0.4c-2.2,0.5-4.3,1.1-6.4,1.7
	c-0.3,0.2-0.7,0.1-0.9-0.1c-0.3-0.2-0.4-0.6-0.2-0.9c0-0.1,0.1-0.1,0.2-0.2c0.3-0.3,0.5-0.5,0.8-0.8c-0.1-0.1-0.3-0.2-0.4-0.2
	c-0.7-0.1-0.8-0.6-0.8-1.1c-0.1-0.5,0.2-0.9,0.6-1.2c0.3-0.2,0.6-0.2,0.9-0.2c0.4,0.1,0.9,0.1,1.3,0.2c0.5,0.1,1,0,1.5-0.3
	c0.4-0.3,0.8-0.5,1.2-0.8c0.6-0.4,0.9-1.2,0.6-1.8c-0.5-0.1-1-0.1-1.5,0c-0.4,0-0.7,0.4-0.8,0.8c0,0.1,0,0.3-0.1,0.4
	C37,20.9,36.6,21,36.1,21c-0.4,0-0.6-0.2-0.6-0.6c0-0.1,0-0.2,0.1-0.3c0.1-0.2,0.2-0.3,0.3-0.5c-0.1-0.4-0.5-0.7-0.2-1.2l3.6-1.1
	c0.8-0.3,1.7-0.5,2.5-0.6c0.6-0.1,1.2-0.2,1.8-0.4c0.6,0.4,0.6,0.4,1.1-0.6c1.5-0.4,3.1-0.7,4.7-1.1c0.8-0.2,1.7-0.5,2.5-0.8
	c1.3-0.4,2.6-0.9,3.8-1.5c0.3-0.2,0.7-0.3,1.1-0.5l0.9,0.6l3.7,2.5c0.2,0.1,0.4,0.3,0.5,0.5c0.3,0.3,0.3,0.8,0,1.1
	c-0.2,0.3-0.5,0.6-0.7,0.9c-0.3,0.4-0.5,0.8-0.5,1.3c0.2,0.2,0.6,0.2,0.8,0c0,0,0,0,0,0c0.2-0.1,0.3-0.3,0.5-0.5
	c0.3-0.3,0.7-0.6,1-0.8c0.4-0.3,1-0.4,1.4-0.1c1,0.4,1.8,1.1,2.6,1.9c-0.4,0.7-0.9,1.4-1.5,2c-0.5,0.6-1,1.3-1.4,1.9
	c-0.1,0-0.2,0.1-0.2,0.1c-1,0.1-1.2,0.2-1.5,1.2c-0.1,0.4-0.3,0.8-0.4,1.3c-0.1,0.6-0.5,1.1-1.1,1.2c-0.3,0.1-0.5,0.2-0.8,0.4
	c-0.2,0.2-0.5,0.3-0.7,0.5c0,0.3,0,0.5,0,0.8c0.1,0.6-0.2,1.2-0.7,1.5l-0.2,0.1c-1.7,1.4-1.5,1.2-2,2.8c-0.1,0.3-0.3,0.6-0.5,0.8
	c-0.7,1.1-1.5,2.2-2.2,3.2c-0.1,0.2-0.2,0.3-0.3,0.5c0.7,0.1,1.5-0.1,2.1-0.4c1.5-0.9,3.1-1.8,4.6-2.7c0.3-0.2,0.7-0.4,1-0.6
	c1.7-0.9,3.4-1.8,5.1-2.6c0.5-0.2,1-0.4,1.5-0.6c0.6-0.2,1.2-0.4,1.4-1c0.2,0,0.5,0,0.7,0c0.5,0.1,1.1-0.1,1.5-0.5l0.7-0.6
	c0.2-0.2,0.5-0.4,0.9-0.4c0.2,0,0.4,0,0.7-0.1c0.3,0,0.6-0.1,0.8-0.4c0.3-0.6,0.9-0.9,1.5-0.8c0.3-0.4,0.6-0.8,0.9-1.3
	c0.4,0,0.8,0,1.2,0c0.5,0,0.9-0.1,1.3-0.5c0.3-0.3,0.6-0.6,0.9-0.9c0.1,0,0.2-0.1,0.2-0.1c0.7,0.2,1.5-0.1,2-0.6
	c0.2-0.2,0.4-0.3,0.7-0.3c0.9-0.2,1.7-0.6,2.5-1c1-0.5,2-1,3.1-1.3c3-1,6-1.9,9-2.9c0.7-0.2,1.3-0.5,2-0.8c0.2-0.1,0.5-0.2,0.7-0.3
	c0.5-0.2,1,0,1.3,0.4c0.3,0.3,0.3,0.8,0,1.1c-0.1,0.1-0.2,0.1-0.2,0.2c-0.6,0.3-1.1,0.5-1.7,0.7c-1.6,0.5-3.2,1-4.8,1.5
	C94.1,21.1,94.1,21.2,94.7,22.2z M53.1,58c0.3-0.2,0.4-0.5,0.7-0.8c0.2-0.3,0.3-0.7,0.2-1.1c-0.1-0.5-0.2-0.9-0.3-1.4
	c-0.3-1-0.4-2-0.3-3c0-0.1,0-0.2,0-0.3c-0.2-0.5-0.3-1.1-0.2-1.7c0-0.4-0.2-0.7-0.5-0.8c-0.4-0.1-0.8,0-1,0.3
	c-0.4,0.4-0.5,0.9-0.4,1.4c0.3,1.1,0.4,2.3,0.1,3.4c-0.1,0.3,0,0.6,0.2,0.8c0.4,0.5,0.6,1.1,0.7,1.7c0.1,0.3,0.1,0.7,0.2,1.1
	C52.5,57.8,52.8,58,53.1,58z M53.4,59c-0.6,0.6-0.9,1.5-0.7,2.3c0.1,0.5,0.2,1,0.3,1.5c0.2,0.8,0.3,1.5,0.5,2.2
	c0.1,0.4,0.4,0.8,0.7,1c0.3,0.2,0.8,0.2,1-0.1c0.3-0.3,0.4-0.7,0.2-1.1c-0.2-0.7-0.4-1.4-0.6-2.1c-0.2-0.6-0.2-1.3-0.1-1.9
	c0-0.3,0.1-0.6,0.1-1C54.3,59.5,53.9,59.2,53.4,59z M58.6,23.5c0.1-0.1,0.3-0.1,0.4-0.2c0.5-0.9,1-1.7,1.7-2.4
	c0.1-0.1,0.1-0.2,0.2-0.4c0.1-0.4-0.1-0.8-0.4-1c-0.4-0.1-0.8,0-1,0.3c-0.1,0.1-0.1,0.2-0.2,0.3c-0.4,0.8-0.8,1.6-1.1,2.5
	c-0.1,0.2-0.1,0.4,0,0.6C58.4,23.3,58.5,23.3,58.6,23.5L58.6,23.5z M92.6,22.3c-0.1-0.2-0.3-0.4-0.4-0.6c-0.1-0.1-0.2-0.2-0.2-0.3
	c-0.2,0.1-0.5,0.2-0.7,0.3c-0.3,0.2-0.5,0.5-0.5,0.8c0,0.3,0.3,0.6,0.6,0.6c0.2-0.1,0.3-0.3,0.5-0.4C92.1,22.6,92.4,22.7,92.6,22.3
	L92.6,22.3z"/>
<path class="st0" d="M34.7,19.7c0.1,0.5-0.3,0.9-0.8,1c-0.2,0-0.4,0-0.5-0.1c-0.2-0.1-0.5-0.3-0.6-0.6c-0.2-0.4-0.1-0.8,0.3-1
	c0.1,0,0.1-0.1,0.2-0.1c0.4-0.1,0.9,0,1.2,0.4C34.5,19.4,34.6,19.6,34.7,19.7z"/>
<path class="st0" d="M95.6,21.1c-0.3,0.3-0.5,0.5-0.8,0.4c0,0,0-0.1,0-0.1C94.9,21.1,95.2,21.2,95.6,21.1z"/>
<path class="st0" d="M91.1,22.4c0.5-0.7,0.5-0.7,0.8-0.4L91.1,22.4z"/>
</svg>
