<svg id="Layer_1" data-name="Layer 1" xmlns="http://www.w3.org/2000/svg" viewBox="0 0 106.46 106.46"><defs><style>.cls-1{fill:#e30614;}</style></defs><title>Logo-1</title><path class="cls-1" d="M93.89,18.92c-2.17.78-4.27,1.42-6.39,2.09-.33-.37-.62-.69-.89-1A43.45,43.45,0,0,0,57.75,4.76a45.45,45.45,0,0,0-7.91-.1A42.09,42.09,0,0,0,37.29,7.52,43.84,43.84,0,0,0,10.57,38.63,41.93,41.93,0,0,0,9.52,49,43.86,43.86,0,0,0,34,87.56,44.15,44.15,0,0,0,54.19,92,43.73,43.73,0,0,0,96.51,54.65a44.09,44.09,0,0,0,.32-10.07A41.14,41.14,0,0,0,94,32.36c-.6-1.51-1.34-3-2-4.45-.15-.32-.32-.64-.48-1a1.93,1.93,0,0,1,1.22-.46,9.63,9.63,0,0,0,2.6-1c.8-.42,1.59-.86,2.4-1.3a2.22,2.22,0,0,1,.75.93,52.65,52.65,0,0,1,6.21,14.29A53.32,53.32,0,0,1,78,100.4a51.68,51.68,0,0,1-18.89,5.74,52.69,52.69,0,0,1-32.12-6.61A53.26,53.26,0,0,1,1.24,64.62a53.16,53.16,0,0,1,12-46.51A52.2,52.2,0,0,1,36.73,2.63,51.68,51.68,0,0,1,58.39.28,52.54,52.54,0,0,1,93.15,18C93.38,18.28,93.6,18.56,93.89,18.92Z"/><path class="cls-1" d="M94.7,22.21l2.19-1.08.57.92,1.12-.46c.8-.34,1.61-.66,2.4-1a2.62,2.62,0,0,1,1.79.06.4.4,0,0,1,.27.52,2.09,2.09,0,0,0-.27,1.8,1.86,1.86,0,0,1-1.42.85,1.63,1.63,0,0,0-.42.11,2.2,2.2,0,0,1-1.69,0,2,2,0,0,0-2.06.2,14.72,14.72,0,0,1-1.61.89,11.23,11.23,0,0,1-3.22,1.23,11,11,0,0,0-1.57.42,3.07,3.07,0,0,1-1.28.06c-.72-.09-1.44-.1-2.16-.13a1.26,1.26,0,0,0-1.22.75l-.88,1.63a1.64,1.64,0,0,1-1,0,2.08,2.08,0,0,0-1,0c-1,.3-2.09.57-3.13.86a4.57,4.57,0,0,0-.62.22c-.22.11-.43.25-.7.4,0,.31,0,.63,0,.94a1.22,1.22,0,0,1-1.84,1.08c-.24-.16-.49-.29-.79-.47-.1.11-.23.18-.28.29a1.27,1.27,0,0,1-.93.67c-1,.24-2,.52-2.93.79a2.58,2.58,0,0,0-.42.11,11.51,11.51,0,0,1-1.33.72,7.56,7.56,0,0,1-1.4.25,5.73,5.73,0,0,1-.08.69,2.05,2.05,0,0,1-.22.6.72.72,0,0,1-.83.36c-.66-.17-1.34-.3-2-.45-.38.2-.78.37-1.15.6s-.84.08-1.26,0c-.49.64-.24,1.46-.67,2.17-.78.25-1.64.53-2.49.82a6.77,6.77,0,0,0-.71.33c0,.16-.07.25,0,.3A5.62,5.62,0,0,1,59.81,43a5.58,5.58,0,0,0,.4,2.77,1,1,0,0,1,0,1,2.64,2.64,0,0,0-.15.29,1.7,1.7,0,0,0,.13,1.75c.28.38.5.8.77,1.19A1.31,1.31,0,0,1,61,51.52l-.27.47a1.15,1.15,0,0,0,0,1.15c.33.63.69,1.26,1.09,2a3.19,3.19,0,0,1-.11.51,4.12,4.12,0,0,0,0,2.36c.2.84.36,1.7.55,2.54a2.65,2.65,0,0,1,0,1.6.86.86,0,0,0,.14.92,3.89,3.89,0,0,1,.61,1.49c.25.91.47,1.83.71,2.74.09.34.21.67.33,1a5.48,5.48,0,0,0,1.9-.58c.51-.2,1-.45,1.48-.68A7.25,7.25,0,0,1,71,66.19a2.4,2.4,0,0,0,.43-.07c.2-.39.4-.78.61-1.15a1.49,1.49,0,0,1,1.42-.84,4.62,4.62,0,0,0,2.28-.6,1.21,1.21,0,0,1,.2-.09,3,3,0,0,0,2-1.81,3.86,3.86,0,0,1,.32-.56,1.94,1.94,0,0,1,1.58-1c.68-.06,1.34-.28,2-.38a1.71,1.71,0,0,0,1.37-1.1c.24-.56.51-1.11.79-1.7a4.56,4.56,0,0,1,.74,0,5.15,5.15,0,0,1,1.16.27A3.48,3.48,0,0,0,88.44,57c.33-.12.35-.16.72-.79l-.43-.61a.71.71,0,0,1,0-.81.66.66,0,0,1,.72-.36c.22,0,.43.08.64.11l2.25.38a3.21,3.21,0,0,1,.43.07c.57.13.72.45.39.94a9.54,9.54,0,0,1-1.47,1.94,7.84,7.84,0,0,1-.84,0,1.62,1.62,0,0,0-1.51.66c-.44.53-.91,1-1.39,1.56a3.69,3.69,0,0,1-1.26-.2,2.53,2.53,0,0,0-1.89.21,1.24,1.24,0,0,0-.8,1.19V62.5l-1.09.75a1.85,1.85,0,0,1-1.32.39,2.38,2.38,0,0,0-1.81.56c-.32.24-.66.44-1,.7a3.12,3.12,0,0,0,0,.61,1.06,1.06,0,0,1-.53,1.1,3.48,3.48,0,0,1-2,.62,6.48,6.48,0,0,0-2.13.4,2.12,2.12,0,0,0-1.31,1.05,2,2,0,0,1-.86.8c-1.29.81-2.57,1.63-3.87,2.42a12.64,12.64,0,0,0-1.89,1.45C64.77,74.59,63.39,75.81,62,77l-.57.5a1.19,1.19,0,0,1-1.5.11l-7-4.24a1.1,1.1,0,0,1-.62-1,41.08,41.08,0,0,0-1-7.41,2.08,2.08,0,0,1-.1-.64,7.32,7.32,0,0,0-.54-3,6.48,6.48,0,0,1-.3-2.14,7.69,7.69,0,0,0-.39-2.88,15.38,15.38,0,0,1-.55-3A20.83,20.83,0,0,1,49.34,51a18,18,0,0,0-.25-3,4,4,0,0,1,0-1.51,1.73,1.73,0,0,0-.42-1.57,2.17,2.17,0,0,0-.3.23,11.66,11.66,0,0,1-.93,1,3.09,3.09,0,0,0-1.06,1.6c0,.14-.12.27-.15.41a2.42,2.42,0,0,1-1.12,1.53,2.76,2.76,0,0,0-1.32,1.78A3.94,3.94,0,0,1,42.86,53a2.05,2.05,0,0,0-.58,1.48,1.76,1.76,0,0,1-.4,1.09c-.76,1.19-1.49,2.4-2.25,3.59a1.62,1.62,0,0,1-.49.4,2.87,2.87,0,0,1-.6.23,1.53,1.53,0,0,0-1.26,1.43A17.3,17.3,0,0,1,36.87,63a1.53,1.53,0,0,1-.73,1c-.09.05-.17.14-.26.19a2.88,2.88,0,0,0-1.39,2.65,4.16,4.16,0,0,1-.38,1.56,36.49,36.49,0,0,1-2.62,5c-.63,1-1.18,2.07-1.79,3.1s-.76,1.13-1.89.57c-.9-.46-1.77-1-2.65-1.48L21.58,73.5c-.19-.11-.38-.21-.56-.33a1.52,1.52,0,0,1-.79-1.93,12.33,12.33,0,0,1,.4-1.35,25.82,25.82,0,0,0,.86-2.57,3,3,0,0,1,.55-1,3.71,3.71,0,0,0,.76-1.88,2.63,2.63,0,0,1,.49-1.31,2.15,2.15,0,0,0,.46-.85,3.4,3.4,0,0,1,.84-1.49c.32-.39.6-.81.89-1.23a63.45,63.45,0,0,1,5.2-6.26,10.41,10.41,0,0,0,1.23-1.65c1.84-3.15,3.7-6.3,5.55-9.46a3.93,3.93,0,0,0,.38-.77,7.58,7.58,0,0,1,1.1-2.11,11.33,11.33,0,0,0,1.7-3,1.17,1.17,0,0,1,.22-.37,3,3,0,0,0,.82-1.62,1,1,0,0,1,.42-.59,3.25,3.25,0,0,0,1-1.36,63.86,63.86,0,0,1,3.5-6.25,2.14,2.14,0,0,0,.41-1.78,1.47,1.47,0,0,0-1.32.07,2.39,2.39,0,0,1-1.68.15l-.65-.1a1.33,1.33,0,0,0-1,.28,2.76,2.76,0,0,1-.88.38,64,64,0,0,0-6.38,1.74.84.84,0,0,1-.91-.09.66.66,0,0,1-.07-1.1c.25-.26.51-.48.85-.79a1.65,1.65,0,0,0-.42-.23c-.67-.08-.76-.62-.82-1.12a1.17,1.17,0,0,1,.6-1.18,1.24,1.24,0,0,1,.94-.17c.42.09.86.15,1.28.22a2,2,0,0,0,1.46-.3c.39-.25.8-.49,1.18-.77a1.44,1.44,0,0,0,.56-1.84,3,3,0,0,0-1.47,0,.91.91,0,0,0-.81.77c0,.14,0,.28-.07.42a2.81,2.81,0,0,1-1.28.31c-.38,0-.59-.2-.57-.61a.66.66,0,0,1,.06-.31,4.3,4.3,0,0,1,.29-.45c-.08-.38-.47-.68-.24-1.16l3.58-1.12a11.52,11.52,0,0,1,2.54-.56,13.58,13.58,0,0,0,1.84-.4c.6.35.6.35,1.1-.57,1.53-.37,3.11-.73,4.68-1.14.84-.22,1.65-.53,2.48-.8a21,21,0,0,0,3.82-1.53c.35-.18.73-.3,1.14-.47l.91.58,3.67,2.51a2.42,2.42,0,0,1,.54.52.8.8,0,0,1,0,1.09c-.24.27-.45.57-.68.85a2.08,2.08,0,0,0-.48,1.27.56.56,0,0,0,.8,0,5,5,0,0,0,.47-.45c.33-.28.66-.56,1-.83a1.24,1.24,0,0,1,1.42-.12,7.86,7.86,0,0,1,2.55,1.87,9.26,9.26,0,0,1-1.47,2c-.47.65-1,1.27-1.41,1.88a1.8,1.8,0,0,1-.24.1c-1,.07-1.23.22-1.55,1.17-.14.41-.27.83-.37,1.25a1.36,1.36,0,0,1-1.09,1.19,2.13,2.13,0,0,0-.78.36,5.66,5.66,0,0,0-.67.54c0,.28,0,.53,0,.78a1.61,1.61,0,0,1-.65,1.52l-.16.15c-1.65,1.42-1.54,1.19-2,2.84a3,3,0,0,1-.47.85c-.73,1.08-1.47,2.15-2.21,3.22-.1.15-.18.3-.32.54a3.44,3.44,0,0,0,2.14-.42c1.54-.88,3.06-1.8,4.58-2.7.35-.2.68-.43,1-.61q2.55-1.32,5.13-2.61a9.89,9.89,0,0,1,1.52-.57c.6-.17,1.17-.37,1.4-1a3.8,3.8,0,0,1,.68,0,1.73,1.73,0,0,0,1.49-.47l.66-.57a1.21,1.21,0,0,1,.86-.39,3.63,3.63,0,0,0,.65-.09,1,1,0,0,0,.76-.36A1.44,1.44,0,0,1,76.06,27c.3-.43.6-.83.91-1.27a11.78,11.78,0,0,1,1.19,0,1.56,1.56,0,0,0,1.27-.49c.31-.3.6-.63.89-.94.08,0,.15-.08.21-.07a2.13,2.13,0,0,0,2-.6,1.67,1.67,0,0,1,.69-.3,9.7,9.7,0,0,0,2.49-1,15.89,15.89,0,0,1,3.1-1.3c3-1,6-1.92,9-2.91.68-.22,1.34-.53,2-.8a4.34,4.34,0,0,1,.7-.3,1.12,1.12,0,0,1,1.26.39.79.79,0,0,1-.25,1.28,12.68,12.68,0,0,1-1.71.68c-1.58.5-3.18,1-4.77,1.47C94.11,21.1,94.08,21.21,94.7,22.21ZM53.14,58c.31-.18.43-.53.65-.81A1.26,1.26,0,0,0,54,56.08a13.55,13.55,0,0,1-.29-1.38,7.55,7.55,0,0,1-.28-3,.46.46,0,0,0,0-.31,2.66,2.66,0,0,1-.18-1.69.81.81,0,0,0-.55-.84.88.88,0,0,0-1,.25,1.56,1.56,0,0,0-.43,1.39,6.92,6.92,0,0,1,.12,3.41.88.88,0,0,0,.19.82,3.64,3.64,0,0,1,.67,1.68c.08.35.14.71.23,1.06A.68.68,0,0,0,53.14,58Zm.26,1a2.53,2.53,0,0,0-.68,2.3c.1.49.16,1,.25,1.49.15.75.31,1.49.46,2.23a1.58,1.58,0,0,0,.72,1,.74.74,0,0,0,1-.13,1.06,1.06,0,0,0,.21-1.11c-.19-.7-.38-1.39-.59-2.08a3.8,3.8,0,0,1-.12-1.92,7.61,7.61,0,0,0,.08-.95A4.47,4.47,0,0,0,53.4,59Zm5.25-35.51c.14-.09.31-.14.36-.24a9.71,9.71,0,0,1,1.73-2.35,1,1,0,0,0,.18-.38.89.89,0,0,0-.42-1,.83.83,0,0,0-1,.3,1.59,1.59,0,0,0-.15.29c-.37.82-.75,1.64-1.09,2.48a1.06,1.06,0,0,0,0,.61C58.36,23.26,58.52,23.34,58.65,23.46Zm33.9-1.2c-.13-.22-.25-.44-.38-.64a2.73,2.73,0,0,0-.24-.26,4.82,4.82,0,0,0-.7.26.88.88,0,0,0-.48.8.66.66,0,0,0,.61.65,2.54,2.54,0,0,1,.5-.38C92.09,22.61,92.38,22.67,92.55,22.26Z"/><path class="cls-1" d="M34.66,19.75a.87.87,0,0,1-1.3.85,2,2,0,0,1-.62-.58.76.76,0,0,1,.48-1.1,1.24,1.24,0,0,1,1.19.35A1.71,1.71,0,0,1,34.66,19.75Z"/><path class="cls-1" d="M95.63,21.14c-.29.32-.49.52-.85.43a.13.13,0,0,1,0-.09C94.87,21.07,95.2,21.17,95.63,21.14Z"/><path class="cls-1" d="M91.09,22.45c.47-.7.47-.7.8-.38Z"/></svg>